<mxfile host="Electron" agent="Mozilla/5.0 (Windows NT 10.0; Win64; x64) AppleWebKit/537.36 (KHTML, like Gecko) draw.io/26.2.2 Chrome/134.0.6998.178 Electron/35.1.2 Safari/537.36" version="26.2.2">
  <diagram name="Page-1" id="6cR0XXLYgolCAbxEMWs8">
    <mxGraphModel dx="753" dy="761" grid="1" gridSize="10" guides="1" tooltips="1" connect="1" arrows="1" fold="1" page="1" pageScale="1" pageWidth="850" pageHeight="1100" math="0" shadow="0">
      <root>
        <mxCell id="0" />
        <mxCell id="1" parent="0" />
        <mxCell id="p-np1M1yXb6fM-nYutFG-3" value="" style="rounded=0;whiteSpace=wrap;html=1;fillColor=#fff2cc;strokeColor=#d6b656;" vertex="1" parent="1">
          <mxGeometry x="250" y="100" width="80" height="30" as="geometry" />
        </mxCell>
        <mxCell id="p-np1M1yXb6fM-nYutFG-4" value="" style="rounded=0;whiteSpace=wrap;html=1;fillColor=#d5e8d4;strokeColor=#82b366;" vertex="1" parent="1">
          <mxGeometry x="330" y="100" width="60" height="30" as="geometry" />
        </mxCell>
        <mxCell id="p-np1M1yXb6fM-nYutFG-5" value="" style="rounded=0;whiteSpace=wrap;html=1;fillColor=#dae8fc;strokeColor=#6c8ebf;" vertex="1" parent="1">
          <mxGeometry x="390" y="100" width="150" height="30" as="geometry" />
        </mxCell>
        <mxCell id="p-np1M1yXb6fM-nYutFG-6" value="double  sqrt  ( double num );" style="text;whiteSpace=wrap;fontSize=18;fontFamily=Consolas;" vertex="1" parent="1">
          <mxGeometry x="260" y="100" width="300" height="30" as="geometry" />
        </mxCell>
        <mxCell id="p-np1M1yXb6fM-nYutFG-7" value="Return Type" style="text;html=1;align=center;verticalAlign=middle;whiteSpace=wrap;rounded=0;fontSize=14;" vertex="1" parent="1">
          <mxGeometry x="260" y="140" width="60" height="30" as="geometry" />
        </mxCell>
        <mxCell id="p-np1M1yXb6fM-nYutFG-8" value="Name" style="text;html=1;align=center;verticalAlign=middle;whiteSpace=wrap;rounded=0;fontSize=14;" vertex="1" parent="1">
          <mxGeometry x="330" y="140" width="60" height="30" as="geometry" />
        </mxCell>
        <mxCell id="p-np1M1yXb6fM-nYutFG-9" value="Parameters" style="text;html=1;align=center;verticalAlign=middle;whiteSpace=wrap;rounded=0;fontSize=14;" vertex="1" parent="1">
          <mxGeometry x="435" y="140" width="60" height="30" as="geometry" />
        </mxCell>
      </root>
    </mxGraphModel>
  </diagram>
</mxfile>
